<?xml version="1.0" encoding="utf-8"?>
<!-- Generator: Adobe Illustrator 23.0.1, SVG Export Plug-In . SVG Version: 6.00 Build 0)  -->
<svg version="1.1" id="Слой_1" xmlns="http://www.w3.org/2000/svg" xmlns:xlink="http://www.w3.org/1999/xlink" x="0px" y="0px"
	 width="144.8px" height="34px" viewBox="0 0 144.8 34" style="enable-background:new 0 0 144.8 34;" xml:space="preserve">
<style type="text/css">
	.st0{fill:#00547E;}
</style>
<g>
	<path class="st0" d="M6.6,0.2h5.2v33.2H6.6V0.2z"/>
	<path class="st0" d="M32.5,33.5h-5.3l-0.9-6H20l-0.9,6h-4.8l5.3-33.2h7.6L32.5,33.5z M20.6,22.9h5L23.1,6.1L20.6,22.9z"/>
	<path class="st0" d="M45.9,33.5c-0.3-0.9-0.5-1.4-0.5-4.1v-5.2c0-3.1-1-4.2-3.4-4.2h-1.8v13.5H35V0.2h7.9c5.4,0,7.7,2.5,7.7,7.6
		v2.6c0,3.4-1.1,5.6-3.4,6.7c2.6,1.1,3.5,3.6,3.5,7.1v5.1c0,1.6,0,2.8,0.6,4H45.9z M40.2,5v10.2h2c1.9,0,3.1-0.9,3.1-3.5V8.4
		C45.4,6,44.5,5,42.7,5H40.2z"/>
	<path class="st0" d="M54,0.2h8.3c5.2,0,7.8,2.9,7.8,8.2v16.8c0,5.3-2.6,8.2-7.8,8.2H54V0.2z M59.3,5v23.7h2.9
		c1.7,0,2.7-0.9,2.7-3.2V8.2c0-2.4-1-3.2-2.7-3.2H59.3z"/>
	<path class="st0" d="M78.4,0.2v25.6c0,2.4,1,3.2,2.7,3.2s2.7-0.9,2.7-3.2V0.2h4.9v25.3c0,5.3-2.7,8.4-7.8,8.4s-7.8-3-7.8-8.4V0.2
		H78.4z"/>
	<path class="st0" d="M92.3,0.2h5.2v33.2h-5.2V0.2z"/>
	<path class="st0" d="M106,9.4v24.1h-4.7V0.2h6.6l5.4,19.9V0.2h4.7v33.2h-5.4L106,9.4z"/>
	<path class="st0" d="M121.2,8.2c0-5.3,2.8-8.4,7.9-8.4c5.1,0,7.9,3,7.9,8.4v17.3c0,5.3-2.8,8.4-7.9,8.4c-5.1,0-7.9-3-7.9-8.4V8.2z
		 M126.4,25.8c0,2.4,1,3.3,2.7,3.3c1.7,0,2.7-0.9,2.7-3.3V7.9c0-2.4-1-3.3-2.7-3.3c-1.7,0-2.7,0.9-2.7,3.3V25.8z"/>
</g>
</svg>
